<svg id="Layer_1" data-name="Layer 1" xmlns="http://www.w3.org/2000/svg" viewBox="0 0 237.46 35.27" height="35.27" width="237.46">
    <defs>
        <style>.cls-1{fill:#ef4041;}.cls-2{fill:#c1282d;}.cls-3{fill:#fff;}</style>
    </defs>
    <title>Spaghet</title>
    <g id="BADGE">
        <rect id="FIRST_TAG_BOX" data-name="FIRST TAG BOX" class="cls-1" y="0.1" width="103.89" height="35.07"/>
        <rect id="SECOND_TAG_BOX" data-name="SECOND TAG BOX" class="cls-2" x="103.89" width="133.57" height="35.27"/>
        <g id="MADE_OF" data-name="MADE OF">
            <path class="cls-3"
                  d="M16.24,12.38,19.1,20h0L22,12.38h2.15v9.95H22.51V18.94l.16-4.31h0l-2.95,7.71H18.56l-2.93-7.69h-.05l.17,4.29v3.39H14.09V12.38Z"/>
            <path class="cls-3"
                  d="M34.82,20H30.93l-.8,2.32H28.45l3.66-9.95h1.57l3.62,9.95H35.61Zm-3.41-1.39h2.94l-1.44-4.25h0Z"/>
            <path class="cls-3"
                  d="M41.53,22.33V12.38h3.23a4.17,4.17,0,0,1,3.08,1.18,4.11,4.11,0,0,1,1.19,3v1.51a4.08,4.08,0,0,1-1.19,3,4.17,4.17,0,0,1-3.08,1.18Zm1.67-8.62V21h1.51a2.45,2.45,0,0,0,1.95-.81,3.05,3.05,0,0,0,.71-2.08V16.58a3,3,0,0,0-.71-2.06,2.45,2.45,0,0,0-1.95-.81Z"/>
            <path class="cls-3" d="M59.83,17.85H55.48V21h5.05v1.33H53.82V12.38h6.66v1.33h-5v2.81h4.35Z"/>
            <path class="cls-3"
                  d="M79.33,18.25a4.2,4.2,0,0,1-1.14,3,3.91,3.91,0,0,1-3,1.2,3.81,3.81,0,0,1-2.91-1.2,4.27,4.27,0,0,1-1.12-3V16.46a4.29,4.29,0,0,1,1.12-3,3.76,3.76,0,0,1,2.9-1.21,3.92,3.92,0,0,1,3,1.21,4.22,4.22,0,0,1,1.14,3Zm-1.65-1.81a3,3,0,0,0-.67-2,2.22,2.22,0,0,0-1.8-.8,2.11,2.11,0,0,0-1.73.8,3.18,3.18,0,0,0-.63,2v1.81a3.24,3.24,0,0,0,.63,2.06,2.1,2.1,0,0,0,1.74.8,2.19,2.19,0,0,0,1.8-.8,3.12,3.12,0,0,0,.66-2.06Z"/>
            <path class="cls-3" d="M90.24,18.08H85.87v4.25H84.21V12.38h6.72v1.33H85.87v3h4.37Z"/>
        </g>
        <g id="SPAGHETTI">
            <path class="cls-3"
                  d="M119,22.23a5.6,5.6,0,0,1-1.82-.78l.91-2.05a5.46,5.46,0,0,0,1.52.7,5.75,5.75,0,0,0,1.71.27c1.06,0,1.6-.27,1.6-.8a.66.66,0,0,0-.46-.62,7.9,7.9,0,0,0-1.46-.43,14.21,14.21,0,0,1-1.85-.51,3.08,3.08,0,0,1-1.27-.87,2.38,2.38,0,0,1-.54-1.63,2.86,2.86,0,0,1,.49-1.62,3.31,3.31,0,0,1,1.47-1.14,6,6,0,0,1,2.38-.42,8.74,8.74,0,0,1,1.91.22,5.79,5.79,0,0,1,1.65.64l-.85,2.06a5.67,5.67,0,0,0-2.72-.76,2.3,2.3,0,0,0-1.2.24.73.73,0,0,0-.38.64.63.63,0,0,0,.45.59,8.82,8.82,0,0,0,1.44.41,11.62,11.62,0,0,1,1.85.51,3.26,3.26,0,0,1,1.28.86,2.33,2.33,0,0,1,.54,1.62,2.82,2.82,0,0,1-.49,1.6,3.46,3.46,0,0,1-1.47,1.14,6.07,6.07,0,0,1-2.38.42A8.81,8.81,0,0,1,119,22.23Z"/>
            <path class="cls-3"
                  d="M136.8,13a3.36,3.36,0,0,1,1.51,1.26,3.43,3.43,0,0,1,.53,1.93,3.36,3.36,0,0,1-.53,1.91,3.49,3.49,0,0,1-1.51,1.26,5.63,5.63,0,0,1-2.31.44h-1.71v2.56H130v-9.8h4.48A5.63,5.63,0,0,1,136.8,13Zm-1.19,4.24a1.31,1.31,0,0,0,.43-1.05,1.34,1.34,0,0,0-.43-1.07,1.93,1.93,0,0,0-1.29-.38h-1.54v2.87h1.54A1.93,1.93,0,0,0,135.61,17.21Z"/>
            <path class="cls-3"
                  d="M149.34,20.43H145.2l-.77,1.9H141.6l4.33-9.8h2.73l4.34,9.8h-2.89Zm-.81-2.05-1.26-3.13L146,18.38Z"/>
            <path class="cls-3"
                  d="M163.29,17.22h2.45v4.06a6.38,6.38,0,0,1-1.93.92,7.54,7.54,0,0,1-2.19.32,5.75,5.75,0,0,1-2.77-.65,4.75,4.75,0,0,1-1.93-1.81,5,5,0,0,1-.7-2.63,5,5,0,0,1,.7-2.63A4.8,4.8,0,0,1,158.86,13a6,6,0,0,1,2.82-.65,6.42,6.42,0,0,1,2.46.46A4.8,4.8,0,0,1,166,14.12l-1.76,1.6a3.12,3.12,0,0,0-2.38-1.09,2.63,2.63,0,0,0-2.8,2.8,2.91,2.91,0,0,0,.35,1.45,2.52,2.52,0,0,0,1,1,2.85,2.85,0,0,0,1.44.36,3.64,3.64,0,0,0,1.5-.32Z"/>
            <path class="cls-3" d="M179.91,12.53v9.8h-2.78V18.51h-3.78v3.82h-2.77v-9.8h2.77v3.68h3.78V12.53Z"/>
            <path class="cls-3" d="M192.81,20.19v2.14H185v-9.8h7.68v2.14h-4.94v1.65H192v2.07h-4.35v1.8Z"/>
            <path class="cls-3" d="M199.52,14.73h-3v-2.2h8.78v2.2h-3v7.6h-2.77Z"/>
            <path class="cls-3" d="M211.63,14.73h-3v-2.2h8.78v2.2h-3v7.6h-2.77Z"/>
            <path class="cls-3" d="M221.51,12.53h2.78v9.8h-2.78Z"/>
        </g>
    </g>
</svg>